<mxfile host="app.diagrams.net" agent="Mozilla/5.0 (Windows NT 10.0; Win64; x64) AppleWebKit/537.36 (KHTML, like Gecko) Chrome/136.0.0.0 Safari/537.36" version="27.0.9">
  <diagram name="Pagina-1" id="7L0LI0vAFYGjomKPs-x2">
    <mxGraphModel dx="1426" dy="785" grid="1" gridSize="10" guides="1" tooltips="1" connect="1" arrows="1" fold="1" page="1" pageScale="1" pageWidth="827" pageHeight="1169" math="0" shadow="0">
      <root>
        <mxCell id="0" />
        <mxCell id="1" parent="0" />
        <mxCell id="2awhrkOe10rl8E8iRON_-1" value="Stations&lt;div&gt;-----------&lt;/div&gt;&lt;div&gt;stationid&amp;nbsp; (PK)&lt;/div&gt;&lt;div&gt;stationname&lt;/div&gt;&lt;div&gt;lat&lt;/div&gt;&lt;div&gt;lon&lt;/div&gt;&lt;div&gt;regio&lt;/div&gt;" style="rounded=1;whiteSpace=wrap;html=1;" parent="1" vertex="1">
          <mxGeometry x="580" y="380" width="180" height="150" as="geometry" />
        </mxCell>
        <mxCell id="2awhrkOe10rl8E8iRON_-2" value="Measurements&lt;div&gt;-----------------&lt;/div&gt;&lt;div&gt;&lt;div&gt;measurementid (PK)&lt;/div&gt;&lt;div&gt;timestamp&lt;/div&gt;&lt;div&gt;temperature&lt;/div&gt;&lt;div&gt;groundtemperature&lt;/div&gt;&lt;div&gt;feeltemperature&lt;/div&gt;&lt;div&gt;windgusts&lt;/div&gt;&lt;div&gt;windspeedBft&lt;/div&gt;&lt;div&gt;humidity&lt;/div&gt;&lt;div&gt;precipitation&lt;/div&gt;&lt;div&gt;sunpower&lt;/div&gt;&lt;div&gt;stationid (FK)&lt;/div&gt;&lt;/div&gt;&lt;div&gt;UNIQUE (stationid, timestamp)&lt;/div&gt;&lt;div&gt;&lt;br&gt;&lt;/div&gt;" style="rounded=1;whiteSpace=wrap;html=1;" parent="1" vertex="1">
          <mxGeometry x="70" y="170" width="200" height="250" as="geometry" />
        </mxCell>
        <mxCell id="2awhrkOe10rl8E8iRON_-3" value="" style="endArrow=classic;html=1;rounded=0;" parent="1" source="2awhrkOe10rl8E8iRON_-2" target="2awhrkOe10rl8E8iRON_-1" edge="1">
          <mxGeometry width="50" height="50" relative="1" as="geometry">
            <mxPoint x="390" y="430" as="sourcePoint" />
            <mxPoint x="440" y="380" as="targetPoint" />
          </mxGeometry>
        </mxCell>
        <mxCell id="2awhrkOe10rl8E8iRON_-4" value="FK: measurements.stationid â†’ stations.stationid" style="edgeLabel;html=1;align=center;verticalAlign=middle;resizable=0;points=[];" parent="2awhrkOe10rl8E8iRON_-3" vertex="1" connectable="0">
          <mxGeometry x="-0.0459" y="2" relative="1" as="geometry">
            <mxPoint as="offset" />
          </mxGeometry>
        </mxCell>
        <mxCell id="JSEexwDB7b6JcMHD7rnJ-1" value="&lt;font style=&quot;font-size: 36px;&quot;&gt;&lt;b&gt;weather&lt;/b&gt;&lt;/font&gt;" style="text;html=1;align=center;verticalAlign=middle;resizable=0;points=[];autosize=1;strokeColor=none;fillColor=none;" vertex="1" parent="1">
          <mxGeometry x="350" y="50" width="160" height="60" as="geometry" />
        </mxCell>
      </root>
    </mxGraphModel>
  </diagram>
</mxfile>
